<svg xmlns="http://www.w3.org/2000/svg" version="1.1" xmlns:xlink="http://www.w3.org/1999/xlink" xmlns:svgjs="http://svgjs.dev/svgjs" width="1500" height="492" viewBox="0 0 1500 492"><g transform="matrix(1,0,0,1,-0.9090909090909918,0.5445481387403959)"><svg viewBox="0 0 396 130" data-background-color="#ffffff" preserveAspectRatio="xMidYMid meet" height="492" width="1500" xmlns="http://www.w3.org/2000/svg" xmlns:xlink="http://www.w3.org/1999/xlink"><g id="tight-bounds" transform="matrix(1,0,0,1,0.2400000000000091,-0.14388467080539158)"><svg viewBox="0 0 395.52 130.28776934161078" height="130.28776934161078" width="395.52"><g><svg viewBox="0 0 395.52 130.28776934161078" height="130.28776934161078" width="395.52"><g transform="matrix(1,0,0,1,0,80.52306833919116)"><svg viewBox="0 0 395.52 49.764701002419635" height="49.764701002419635" width="395.52"><g id="textblocktransform"><svg viewBox="0 0 395.52 49.764701002419635" height="49.764701002419635" width="395.52" id="textblock"><g><svg viewBox="0 0 395.52 49.764701002419635" height="49.764701002419635" width="395.52"><g transform="matrix(1,0,0,1,0,0)"><svg width="395.52" viewBox="5.75 -35.7 289.28 36.400000000000006" height="49.764701002419635" data-palette-color="#94f3e4"><path d="M35.85-35L39.45-35 39.45 0 36.05 0 36.05-32.1 35.75-32.1 23.65-8.9 22.1-8.9 8.35-29.35 8.05-29.35 9.15 0 5.75 0 7-35.7 8-35.7 23.75-12.3 24.05-12.3 35.85-35ZM63.55 0L59.95 0 59.95-14.8 47.55-35 51.35-35 62.5-16.7 62.8-16.7 71.7-35 75.5-35 63.55-15.5 63.55 0ZM88.8-16.75L76.3-16.75 76.3-18.95 88.8-18.95 88.8-16.75ZM93.24-1.1L93.24-1.1 93.54-4.1 93.84-4.1Q95.79-2.4 98.24-1.45 100.69-0.5 103.09-0.5L103.09-0.5Q106.49-0.5 108.59-2.38 110.69-4.25 110.69-7.4L110.69-7.4Q110.69-9.15 109.92-10.65 109.14-12.15 107.37-13.7 105.59-15.25 102.49-17.05L102.49-17.05Q100.34-18.3 98.39-19.68 96.44-21.05 95.19-22.88 93.94-24.7 93.94-27.25L93.94-27.25Q93.94-31.05 96.69-33.38 99.44-35.7 103.94-35.7L103.94-35.7Q105.94-35.7 108.24-35.27 110.54-34.85 111.79-34.2L111.79-34.2 111.54-31.4 111.24-31.4Q108.39-34.5 103.94-34.5L103.94-34.5Q100.74-34.5 98.79-32.88 96.84-31.25 96.84-28.5L96.84-28.5Q96.84-26.45 97.92-24.98 98.99-23.5 100.69-22.33 102.39-21.15 104.34-20.05L104.34-20.05Q106.59-18.75 108.72-17.3 110.84-15.85 112.22-13.83 113.59-11.8 113.59-8.75L113.59-8.75Q113.59-5.95 112.29-3.83 110.99-1.7 108.62-0.5 106.24 0.7 103.09 0.7L103.09 0.7Q101.09 0.7 98.39 0.2 95.69-0.3 93.24-1.1ZM133.84 0L130.44 0 130.44-34Q129.69-34 127.34-33.7L127.34-33.7 117.54-32.45 117.54-35 146.74-35 146.74-32.45 136.94-33.7Q134.59-34 133.84-34L133.84-34 133.84 0ZM154.34-14L154.34-35 157.74-35 157.74-13.9Q157.74-7.85 160.71-4.48 163.69-1.1 169.09-1.1L169.09-1.1Q172.49-1.1 175.01-2.43 177.54-3.75 178.91-6.1 180.29-8.45 180.19-11.5L180.19-11.5 179.34-35 182.74-35 181.89-11.5Q181.69-5.5 178.31-2.4 174.94 0.7 168.69 0.7L168.69 0.7Q161.94 0.7 158.14-3.23 154.34-7.15 154.34-14L154.34-14ZM205.74 0L194.74 0 194.74-35 205.74-35Q211.54-35 215.84-32.8 220.14-30.6 222.54-26.68 224.94-22.75 224.94-17.5L224.94-17.5Q224.94-12.25 222.54-8.33 220.14-4.4 215.84-2.2 211.54 0 205.74 0L205.74 0ZM205.74-33.8L205.74-33.8 198.14-33.8 198.14-1.2 205.74-1.2Q212.99-1.2 217.06-5.5 221.14-9.8 221.14-17.5L221.14-17.5Q221.14-25.2 217.06-29.5 212.99-33.8 205.74-33.8ZM238.83 0L235.43 0 235.43-35 238.83-35 238.83 0ZM267.23 0L251.83 0 251.83-35 267.08-35 267.08-32.55 258.33-33.7Q256.03-34 255.23-34L255.23-34 255.23-18.75Q255.88-18.75 258.33-18.9L258.33-18.9 266.53-19.4 266.53-17.1 258.33-17.6Q255.88-17.75 255.23-17.75L255.23-17.75 255.23-1Q256.13-1 258.38-1.3L258.38-1.3 267.23-2.45 267.23 0ZM274.68-1.1L274.68-1.1 274.98-4.1 275.28-4.1Q277.23-2.4 279.68-1.45 282.13-0.5 284.53-0.5L284.53-0.5Q287.93-0.5 290.03-2.38 292.13-4.25 292.13-7.4L292.13-7.4Q292.13-9.15 291.35-10.65 290.58-12.15 288.8-13.7 287.03-15.25 283.93-17.05L283.93-17.05Q281.78-18.3 279.83-19.68 277.88-21.05 276.63-22.88 275.38-24.7 275.38-27.25L275.38-27.25Q275.38-31.05 278.13-33.38 280.88-35.7 285.38-35.7L285.38-35.7Q287.38-35.7 289.68-35.27 291.98-34.85 293.23-34.2L293.23-34.2 292.98-31.4 292.68-31.4Q289.83-34.5 285.38-34.5L285.38-34.5Q282.18-34.5 280.23-32.88 278.28-31.25 278.28-28.5L278.28-28.5Q278.28-26.45 279.35-24.98 280.43-23.5 282.13-22.33 283.83-21.15 285.78-20.05L285.78-20.05Q288.03-18.75 290.15-17.3 292.28-15.85 293.65-13.83 295.03-11.8 295.03-8.75L295.03-8.75Q295.03-5.95 293.73-3.83 292.43-1.7 290.05-0.5 287.68 0.7 284.53 0.7L284.53 0.7Q282.53 0.7 279.83 0.2 277.13-0.3 274.68-1.1Z" opacity="1" transform="matrix(1,0,0,1,0,0)" fill="#94f3e4" class="wordmark-text-0" data-fill-palette-color="primary" id="text-0"></path></svg></g></svg></g></svg></g></svg></g><g transform="matrix(1,0,0,1,155.6567850651187,0)"><svg viewBox="0 0 84.20642986976259 68.77481678534394" height="68.77481678534394" width="84.20642986976259"><g><svg xmlns="http://www.w3.org/2000/svg" xmlns:xlink="http://www.w3.org/1999/xlink" version="1.1" x="8" y="0" viewBox="9 8.7 72 72.6" enable-background="new 0 0 90 90" xml:space="preserve" height="68.77481678534394" width="68.20642986976259" class="icon-icon-0" data-fill-palette-color="accent" id="icon-0"><polygon points="71,48.7 71,18.2 54.8,9 38.7,9 63,22.8 63,36.7 63,53.3 " fill="#37aa9c" data-fill-palette-color="accent"></polygon><polygon points="29,66 54.8,81 54.7,81 55.1,81.3 71.7,71.7 79.7,57.8 55.3,72 29,56.8 " fill="#37aa9c" data-fill-palette-color="accent"></polygon><polygon points="61.2,57 61.3,57 46.9,65.2 54.8,69.8 81,54.5 81,35.2 73,21.3 73,49.8 " fill="#37aa9c" data-fill-palette-color="accent"></polygon><polygon points="61,23.9 34.8,8.7 18.2,18.3 10.2,32.3 35,18 47,25 46.8,25 61,33.2 " fill="#37aa9c" data-fill-palette-color="accent"></polygon><polygon points="35.2,20.3 9,35.6 9,54.8 17,68.7 17,40.2 28.8,33.2 28.8,33.2 43.2,24.9 " fill="#37aa9c" data-fill-palette-color="accent"></polygon><polygon points="19,41.3 19,71.8 35.2,81 51.4,81 27,67.2 27,53.3 27,36.7 " fill="#37aa9c" data-fill-palette-color="accent"></polygon></svg></g></svg></g><g><rect width="155.6567850651187" height="4.487832093569637" y="63.28698469177431" x="239.86321493488128" fill="#37aa9c" data-fill-palette-color="accent"></rect><rect width="155.6567850651187" height="4.487832093569637" y="63.28698469177431" x="0" fill="#37aa9c" data-fill-palette-color="accent"></rect><rect width="155.6567850651187" height="4.487832093569637" y="54.311320504635034" x="239.86321493488128" fill="#37aa9c" data-fill-palette-color="accent"></rect><rect width="155.6567850651187" height="4.487832093569637" y="54.311320504635034" x="0" fill="#37aa9c" data-fill-palette-color="accent"></rect></g></svg></g><defs></defs></svg><rect width="395.52" height="130.28776934161078" fill="none" stroke="none" visibility="hidden"></rect></g></svg></g></svg>