<?xml version="1.0" encoding="utf-8"?>
<svg viewBox="0.647 -0.647 266.494 178.525" xmlns="http://www.w3.org/2000/svg">
  <g transform="matrix(2.1580669879913335, 0, 0, 2.1580669879913335, -398.99725936349114, 722.576182642224)" style="">
    <path class="st0" d="M 187.94 -322.198 L 218.74 -322.198 L 218.74 -323.698 C 218.74 -329.948 223.85 -335.058 230.1 -335.058 L 241.47 -335.058 C 247.72 -335.058 252.83 -329.948 252.83 -323.698 L 252.83 -322.198 L 281.68 -322.198 C 282.94 -322.198 283.98 -321.168 283.98 -319.898 L 283.98 -312.388 L 213.7 -312.388 C 212.41 -312.388 210.86 -311.338 210.24 -310.048 L 187.52 -262.998 C 186.45 -263.198 185.64 -264.128 185.64 -265.248 L 185.64 -319.898 C 185.64 -321.168 186.67 -322.198 187.94 -322.198 Z M 224.39 -322.198 L 247.18 -322.198 L 247.18 -323.488 C 247.18 -326.698 244.56 -329.328 241.34 -329.328 L 230.23 -329.328 C 227.02 -329.328 224.39 -326.698 224.39 -323.488 L 224.39 -322.198 Z M 216.05 -308.048 L 306.96 -308.048 C 308.24 -308.048 308.89 -306.978 308.3 -305.718 L 284.55 -255.208 C 283.96 -253.948 282.5 -252.878 281.22 -252.878 L 190.31 -252.878 C 189.02 -252.878 188.38 -253.948 188.97 -255.208 L 212.72 -305.718 C 213.31 -306.978 214.76 -308.048 216.05 -308.048 Z" style="clip-rule: evenodd; fill-rule: evenodd; fill: rgb(55, 170, 156);"/>
  </g>
</svg>