<?xml version="1.0" encoding="UTF-8" standalone="no"?>
<!DOCTYPE svg PUBLIC "-//W3C//DTD SVG 1.1//EN" "http://www.w3.org/Graphics/SVG/1.1/DTD/svg11.dtd">
<svg xmlns="http://www.w3.org/2000/svg" xmlns:xlink="http://www.w3.org/1999/xlink" version="1.1" width="1080" height="1080" viewBox="0 0 1080 1080" xml:space="preserve">
    <desc>Created with Fabric.js 5.2.4</desc>
    <defs></defs>
    <rect x="0" y="0" width="100%" height="100%" fill="transparent"></rect>
    <g transform="matrix(1 0 0 1 540 540)" id="c7cdb6fc-5c99-4a01-9fe4-528952124dc4"></g>
    <g transform="matrix(1 0 0 1 540 540)" id="1f9081f8-1458-44fc-a45d-561c29831425">
        <rect style="stroke: none; stroke-width: 1; stroke-dasharray: none; stroke-linecap: butt; stroke-dashoffset: 0; stroke-linejoin: miter; stroke-miterlimit: 4; fill: rgb(55,170,156); fill-rule: nonzero; opacity: 1;" vector-effect="non-scaling-stroke" x="-540" y="-540" rx="0" ry="0" width="1080" height="1080" />
    </g>
    <g transform="matrix(14.56 0 0 14.56 541.72 540.72)" id="47ea8b1a-21e9-428e-828b-70fd16a1d085">
        <rect style="stroke: rgb(26,26,27); stroke-width: 0; stroke-dasharray: none; stroke-linecap: butt; stroke-dashoffset: 0; stroke-linejoin: miter; stroke-miterlimit: 4; fill: rgb(26,26,27); fill-rule: nonzero; opacity: 1;" vector-effect="non-scaling-stroke" x="-37.165" y="-37.165" rx="0" ry="0" width="74.33" height="74.33" />
    </g>
    <g transform="matrix(13.38 0 0 13.38 540.35 540.35)">
        <path style="stroke: rgb(55,170,156); stroke-width: 0; stroke-dasharray: none; stroke-linecap: butt; stroke-dashoffset: 0; stroke-linejoin: miter; stroke-miterlimit: 4; fill: rgb(55,170,156); fill-rule: nonzero; opacity: 1;" vector-effect="non-scaling-stroke" transform=" translate(-50, -50)" d="M 90.375 90.375 L 9.625 90.375 L 9.625 9.625 L 90.375 9.625 L 90.375 90.375 z M 11.625 88.375 L 88.375 88.375 L 88.375 11.625 L 11.625 11.625 L 11.625 88.375 z" stroke-linecap="round" />
    </g>
    <g transform="matrix(1 0 0 1 750 540)" id="53637d88-9636-435e-a822-6b126cbfea96">
        <text xml:space="preserve" font-family="Raleway" font-size="200" font-style="normal" font-weight="900" style="stroke: none; stroke-width: 1; stroke-dasharray: none; stroke-linecap: butt; stroke-dashoffset: 0; stroke-linejoin: miter; stroke-miterlimit: 4; fill: rgb(238,238,238); fill-rule: nonzero; opacity: 1; white-space: pre; text-anchor: middle; alignment-baseline: middle;" >
            <tspan x="0" y="0" dominant-baseline="middle" text-anchor="middle">My-Studies</tspan>
        </text>
    </g>
</svg>
