<?xml version="1.0" encoding="UTF-8" standalone="no" ?>
<!DOCTYPE svg PUBLIC "-//W3C//DTD SVG 1.1//EN" "http://www.w3.org/Graphics/SVG/1.1/DTD/svg11.dtd">
<svg xmlns="http://www.w3.org/2000/svg" xmlns:xlink="http://www.w3.org/1999/xlink" version="1.1" width="32" height="32" viewBox="0 0 32 32" xml:space="preserve">
<desc>Created with Fabric.js 5.3.0</desc>
<defs>
</defs>
<g transform="matrix(0.3173157285 0 0 0.3769874978 16.0029760585 19.7438658879)" id="G_3cpdcYZr2Soy_HCZMSR"  >
<path style="stroke: none; stroke-width: 1; stroke-dasharray: none; stroke-linecap: butt; stroke-dashoffset: 0; stroke-linejoin: miter; stroke-miterlimit: 4; fill: rgb(0,0,0); fill-rule: nonzero; opacity: 1;"  transform=" translate(0, 0)" d="M -39.64777 -23.54997 C -39.73433 -23.830039999999997 -39.661880000000004 -24.128059999999998 -39.45159 -24.35701 C -39.2413 -24.58596 -38.91687 -24.72 -38.573060000000005 -24.72 L -0.009380000000007271 -24.72 L 38.63698999999999 -24.72 L 38.63698999999999 -24.72 C 38.96100999999999 -24.72 39.26675999999999 -24.59367 39.46493999999999 -24.37791 C 39.66312999999999 -24.16214 39.731399999999994 -23.88128 39.649829999999994 -23.61733 L 26.028149999999997 20.457020000000004 L 26.028149999999997 20.457020000000004 C 25.252229999999997 22.967580000000005 22.559379999999997 24.720000000000002 19.47743 24.720000000000002 L -19.625240000000005 24.720000000000002 L -19.625240000000005 24.720000000000002 C -22.631180000000004 24.720000000000002 -25.257620000000006 23.010810000000003 -26.014400000000006 20.562160000000002 z" stroke-linecap="round" />
</g>
<g transform="matrix(5.41 0 0 0.8283079137 16.0029760585 7.8099230365)" id="IHfimcu9D79cL1nhW-lYw"  >
<path style="stroke: rgb(163,170,63); stroke-width: 0; stroke-dasharray: none; stroke-linecap: butt; stroke-dashoffset: 0; stroke-linejoin: miter; stroke-miterlimit: 4; fill: rgb(0,0,0); fill-rule: nonzero; opacity: 1;"  transform=" translate(0, 0)" d="M -2.56148 0.61741 C -2.56148 -1.13824 -2.34357 -2.56147 -2.07477 -2.56147 L 2.01638 -2.56147 L 2.01638 -2.56147 C 2.31743 -2.56147 2.56147 -0.9675199999999999 2.56147 0.9987300000000001 L 2.56147 2.56149 L -2.5614800000000004 2.56149 z" stroke-linecap="round" />
</g>
<g transform="matrix(2.2250522454 0 0 0.4990687798 16.0029760585 3.9777870665)" id="03bULWpURzBtbRjG5VHSk"  >
<path style="stroke: rgb(0,0,0); stroke-width: 0; stroke-dasharray: none; stroke-linecap: butt; stroke-dashoffset: 0; stroke-linejoin: miter; stroke-miterlimit: 4; fill: rgb(0,0,0); fill-rule: nonzero; opacity: 1;"  transform=" translate(0, 0)" d="M -2.52781 -0.37889 C -2.52781 -1.5656999999999999 -2.31201 -2.52781 -2.04582 -2.52781 L 2.0458100000000004 -2.52781 L 2.0458100000000004 -2.52781 C 2.3120100000000003 -2.52781 2.5278000000000005 -1.5657100000000002 2.5278000000000005 -0.37889000000000017 L 2.5278000000000005 1.2553999999999998 L 2.5278000000000005 1.2553999999999998 C 2.5278000000000005 1.9581299999999997 2.4000200000000005 2.5278 2.2424100000000005 2.5278 L -2.2424099999999996 2.5278 L -2.2424099999999996 2.5278 C -2.4000299999999997 2.5278 -2.5277999999999996 1.9581300000000001 -2.5277999999999996 1.2554 z" stroke-linecap="round" />
</g>
</svg>